<svg width="21" height="7" viewBox="0 0 21 7" fill="none" xmlns="http://www.w3.org/2000/svg">
<g clip-path="url(#clip0_4788_315)">
<mask id="mask0_4788_315" style="mask-type:luminance" maskUnits="userSpaceOnUse" x="0" y="0" width="21" height="7">
<path d="M21 0H0V7H21V0Z" fill="white"/>
</mask>
<g mask="url(#mask0_4788_315)">
<path d="M1.34308 6.89062C1.13054 6.91675 0.914827 6.89171 0.713921 6.81758C0.513015 6.74346 0.332729 6.62241 0.188081 6.4645C0.0799657 6.28583 0.0146277 6.08458 -0.00282806 5.87648C-0.0202838 5.66838 0.0106156 5.45906 0.0874557 5.26488L1.49446 0H3.84471C4.12608 0.00146191 4.40639 0.0346296 4.68033 0.098875C4.90401 0.15655 5.11281 0.261252 5.29283 0.406C5.45137 0.557245 5.56468 0.749633 5.62008 0.961625C5.67682 1.23148 5.66327 1.51139 5.58071 1.7745C5.49827 2.08399 5.34352 2.36949 5.12921 2.6075C4.90848 2.84683 4.64419 3.04194 4.35046 3.18237C4.56883 3.26061 4.76533 3.38991 4.92358 3.5595C5.03147 3.70099 5.10947 3.86293 5.15283 4.0355C5.17791 4.18967 5.18262 4.34647 5.16683 4.50187C5.15392 4.61198 5.13463 4.72125 5.10908 4.82912C4.94405 5.46704 4.54439 6.01919 3.98996 6.37525C3.71069 6.54573 3.40875 6.67593 3.09308 6.762C2.75402 6.84554 2.40628 6.88871 2.05708 6.89062H1.34308ZM1.49358 5.14587C1.46718 5.20861 1.45358 5.276 1.45358 5.34406C1.45358 5.41213 1.46718 5.47951 1.49358 5.54225C1.53646 5.64113 1.65458 5.68138 1.85321 5.68138H2.34933C2.5106 5.68445 2.67164 5.6677 2.82883 5.6315C2.97905 5.60949 3.12368 5.559 3.25496 5.48275C3.39201 5.40139 3.51169 5.29384 3.60718 5.16622C3.70266 5.03861 3.77208 4.89344 3.81146 4.739C3.85206 4.60045 3.85718 4.45392 3.82633 4.31287C3.78353 4.21372 3.71893 4.12549 3.63733 4.05475C3.54033 3.99629 3.435 3.95292 3.32496 3.92613C3.19956 3.90694 3.07293 3.89699 2.94608 3.89638H1.82871L1.49358 5.14587ZM2.13933 2.73612H3.01433C3.2776 2.74686 3.5391 2.68864 3.77296 2.56725C3.88161 2.50175 3.97519 2.41402 4.04757 2.30982C4.11996 2.20563 4.1695 2.08731 4.19296 1.96263C4.23148 1.83709 4.23899 1.70408 4.21483 1.575C4.17963 1.48851 4.12621 1.41062 4.05821 1.34663C3.96977 1.29281 3.87219 1.25573 3.77033 1.23725C3.6518 1.21727 3.53179 1.20732 3.41158 1.2075H2.54883L2.13933 2.73612Z" fill="#28323C"/>
<path d="M6.84515 4.78885C6.81203 4.9411 6.82482 5.09975 6.8819 5.24472C6.92435 5.37953 7.01255 5.49529 7.13127 5.57197C7.2469 5.66424 7.38224 5.72861 7.52678 5.7601C7.68008 5.80063 7.83809 5.82064 7.99665 5.8196C8.25312 5.82371 8.50677 5.76577 8.73602 5.65072C8.96134 5.53405 9.16006 5.37198 9.31965 5.17472L10.5727 5.38297C10.4066 5.61387 10.2165 5.82651 10.0057 6.01735C9.79125 6.21347 9.55659 6.38624 9.30565 6.53272C9.0543 6.67302 8.79071 6.79017 8.51815 6.88272C8.24321 6.96108 7.95878 7.00112 7.6729 7.00172C7.31675 7.00748 6.96386 6.93301 6.6404 6.78385C6.35952 6.65233 6.1199 6.44659 5.9474 6.18885C5.76015 5.94043 5.64373 5.6459 5.61052 5.3366C5.55897 4.99545 5.58135 4.64721 5.67615 4.31547C5.77807 3.94687 5.94199 3.59831 6.1609 3.28472C6.38221 2.95936 6.65055 2.66862 6.95715 2.42197C7.26565 2.17805 7.60632 1.97783 7.96952 1.82697C8.33212 1.68521 8.71771 1.61136 9.10703 1.6091C9.46308 1.60438 9.81574 1.67879 10.1395 1.82697C10.4153 1.96489 10.655 2.16534 10.8395 2.41235C11.0087 2.67729 11.1183 2.97585 11.1607 3.28735C11.1995 3.64667 11.1698 4.0101 11.0732 4.35835C11.0323 4.50679 10.9832 4.65285 10.9262 4.79585L6.84515 4.78885ZM9.94528 3.72835C9.9399 3.62305 9.91743 3.51932 9.87877 3.42122C9.82022 3.31708 9.74482 3.22336 9.65565 3.14385C9.54748 3.05436 9.42694 2.98098 9.29778 2.92597C9.12804 2.87203 8.95087 2.84515 8.77277 2.84635C8.58095 2.84588 8.39005 2.8727 8.20578 2.92597C8.04073 2.97681 7.88216 3.0467 7.73328 3.13422C7.60063 3.21532 7.47813 3.31196 7.3684 3.4221C7.27694 3.5105 7.20198 3.61451 7.14703 3.72922L9.94528 3.72835Z" fill="#28323C"/>
<path d="M11.7906 2.8L12.0724 1.75H13.0139L13.482 0H14.7709L14.3036 1.74475H15.2758L14.994 2.79475H14.0219L12.9378 6.83987H11.6506L12.733 2.8H11.7906Z" fill="#28323C"/>
<path d="M18.0985 1.61615C18.3698 1.61516 18.6391 1.66226 18.8939 1.75527C19.1201 1.85276 19.3287 1.98666 19.5116 2.15165L19.6149 1.7649H20.9134L19.5527 6.8399H18.2542L18.3549 6.46278C18.0933 6.62032 17.8158 6.74995 17.5271 6.84952C17.2452 6.94507 16.9498 6.99528 16.6521 6.99827C16.3283 7.00303 16.0079 6.9317 15.7167 6.79003C15.4472 6.64868 15.2127 6.44864 15.0307 6.20465C14.8407 5.9526 14.72 5.65513 14.6808 5.3419C14.6203 4.99476 14.6412 4.63831 14.742 4.30065C14.844 3.92661 15.0123 3.57393 15.239 3.2594C15.4679 2.93766 15.7419 2.65062 16.0527 2.40715C16.3577 2.1676 16.6939 1.97067 17.052 1.82177C17.3857 1.68654 17.742 1.61587 18.102 1.61353M17.0905 5.75753C17.2919 5.75864 17.4919 5.72519 17.682 5.65865C17.8742 5.59255 18.0542 5.49529 18.2149 5.37077C18.3833 5.24226 18.5309 5.08849 18.6524 4.9149C18.7762 4.72691 18.8687 4.52005 18.9262 4.3024C18.982 4.10602 19.0001 3.90088 18.9796 3.69778C18.951 3.53269 18.8842 3.37658 18.7845 3.2419C18.6794 3.12089 18.5504 3.02288 18.4056 2.95402C18.2332 2.88932 18.0507 2.85584 17.8666 2.85515C17.6669 2.8568 17.469 2.89383 17.2821 2.96452C17.0869 3.0431 16.9025 3.14632 16.7335 3.27165C16.5647 3.40222 16.4186 3.5598 16.3012 3.73802C16.1778 3.90864 16.0863 4.10012 16.0309 4.30327C15.9764 4.48663 15.9653 4.68015 15.9985 4.86852C16.0139 5.03821 16.0773 5.19999 16.1814 5.3349C16.2761 5.47273 16.4094 5.57957 16.5646 5.64203C16.727 5.72467 16.9075 5.76557 17.0896 5.76102" fill="#28323C"/>
</g>
</g>
<defs>
<clipPath id="clip0_4788_315">
<rect width="21" height="7" fill="white"/>
</clipPath>
</defs>
</svg>
