<svg width="43" height="32" viewBox="0 0 43 32" fill="none" xmlns="http://www.w3.org/2000/svg">
<g clip-path="url(#clip0_144_3826)">
<mask id="mask0_144_3826" style="mask-type:luminance" maskUnits="userSpaceOnUse" x="8" y="19" width="4" height="4">
<path d="M10.0406 22.1935L8.37207 21.2861C8.66968 21.0763 8.92581 20.7933 9.13804 20.4323C9.35271 20.0566 9.48443 19.6297 9.5381 19.1614L11.2066 20.0688C11.153 20.5372 11.0188 20.9641 10.8066 21.3398C10.5944 21.6983 10.3358 21.9813 10.0406 22.1935Z" fill="white"/>
</mask>
<g mask="url(#mask0_144_3826)">
<path d="M10.0406 22.1934L8.37207 21.286C8.45013 21.2323 8.52331 21.1713 8.59406 21.1079L10.2626 22.0154C10.1919 22.0788 10.1162 22.1373 10.0406 22.1934Z" fill="#9E0013"/>
<path d="M10.2628 22.013L8.59424 21.1055C8.66742 21.0397 8.73572 20.9714 8.80159 20.8958L10.4701 21.8032C10.4043 21.8788 10.336 21.9496 10.2628 22.013Z" fill="#990013"/>
<path d="M10.4698 21.8032L8.80127 20.8958C8.86957 20.8177 8.93544 20.7348 8.99642 20.647L10.665 21.5544C10.604 21.6447 10.5381 21.7276 10.4698 21.8032Z" fill="#940012"/>
<path d="M10.6651 21.5544L8.99658 20.647C9.04537 20.5787 9.09172 20.5055 9.13563 20.4299C9.14782 20.4104 9.15758 20.3884 9.16978 20.3689L10.8383 21.2764C10.8261 21.2959 10.8164 21.3178 10.8042 21.3373C10.7603 21.413 10.7139 21.4861 10.6651 21.5544Z" fill="#8F0011"/>
<path d="M10.8385 21.276L9.16992 20.3686C9.23822 20.2417 9.29677 20.11 9.348 19.9734L11.0165 20.8808C10.9653 21.0199 10.9068 21.1516 10.8385 21.276Z" fill="#8A0011"/>
<path d="M11.0162 20.8811L9.34766 19.9737C9.44035 19.72 9.50378 19.4468 9.53793 19.1589L11.2065 20.0664C11.1723 20.3567 11.1089 20.6275 11.0162 20.8811Z" fill="#850010"/>
</g>
<mask id="mask1_144_3826" style="mask-type:luminance" maskUnits="userSpaceOnUse" x="9" y="17" width="3" height="4">
<path d="M11.2065 20.0664L9.53799 19.1589C9.58677 18.7271 9.54775 18.3222 9.41846 17.9465L11.087 18.854C11.2163 19.2321 11.2553 19.6346 11.2065 20.0664Z" fill="white"/>
</mask>
<g mask="url(#mask1_144_3826)">
<path d="M11.2065 20.0664L9.53799 19.1589C9.58677 18.7271 9.54775 18.3222 9.41846 17.9465L11.087 18.854C11.2163 19.2321 11.2553 19.6346 11.2065 20.0664Z" fill="#850010"/>
</g>
<mask id="mask2_144_3826" style="mask-type:luminance" maskUnits="userSpaceOnUse" x="7" y="21" width="4" height="2">
<path d="M8.98642 22.6229L7.31787 21.7155C7.68622 21.6569 8.03505 21.513 8.36925 21.2861L10.0378 22.1936C9.7036 22.4205 9.35477 22.5644 8.98642 22.6229Z" fill="white"/>
</mask>
<g mask="url(#mask2_144_3826)">
<path d="M8.98642 22.6229L7.31787 21.7154C7.54473 21.6788 7.76428 21.6105 7.97895 21.5105L9.64749 22.418C9.43283 22.518 9.21328 22.5863 8.98642 22.6229Z" fill="#A80014"/>
<path d="M9.64755 22.418L7.979 21.5106C8.11073 21.4471 8.24246 21.3715 8.37175 21.2861L10.0403 22.1936C9.91101 22.279 9.77928 22.3546 9.64755 22.418Z" fill="#A30014"/>
</g>
<mask id="mask3_144_3826" style="mask-type:luminance" maskUnits="userSpaceOnUse" x="10" y="14" width="3" height="2">
<path d="M10.9599 15.012L12.6285 15.9194C12.4407 15.817 12.2357 15.7218 12.0162 15.634L10.3477 14.7266C10.5672 14.8144 10.7697 14.9095 10.9599 15.012Z" fill="white"/>
</mask>
<g mask="url(#mask3_144_3826)">
<path d="M12.0162 15.634L10.3477 14.7266C10.494 14.7851 10.6331 14.8485 10.7672 14.912L12.4358 15.8194C12.3016 15.7535 12.1626 15.6926 12.0162 15.634Z" fill="#A30014"/>
<path d="M12.4356 15.8193L10.7671 14.9119C10.833 14.9436 10.8964 14.9777 10.9598 15.0119L12.6283 15.9193C12.5649 15.8852 12.5015 15.851 12.4356 15.8193Z" fill="#9E0013"/>
</g>
<mask id="mask4_144_3826" style="mask-type:luminance" maskUnits="userSpaceOnUse" x="8" y="17" width="4" height="2">
<path d="M11.087 18.8539L9.41846 17.9464C9.2599 17.6659 9.06475 17.4244 8.83301 17.2195L10.5016 18.1269C10.7333 18.3318 10.9284 18.5758 11.087 18.8539Z" fill="white"/>
</mask>
<g mask="url(#mask4_144_3826)">
<path d="M11.087 18.8539L9.41846 17.9464C9.2599 17.6659 9.06475 17.4244 8.83301 17.2195L10.5016 18.1269C10.7333 18.3318 10.9284 18.5758 11.087 18.8539Z" fill="#850010"/>
</g>
<mask id="mask5_144_3826" style="mask-type:luminance" maskUnits="userSpaceOnUse" x="8" y="17" width="3" height="2">
<path d="M8.6792 17.1294L10.3477 18.0369C10.4014 18.0661 10.4526 18.0954 10.499 18.1271L8.83044 17.2197C8.78409 17.1879 8.73287 17.1587 8.6792 17.1294Z" fill="white"/>
</mask>
<g mask="url(#mask5_144_3826)">
<path d="M10.499 18.1271L8.83044 17.2197C8.78165 17.1879 8.73287 17.1587 8.6792 17.1294L10.3477 18.0369C10.4014 18.0661 10.4526 18.0954 10.499 18.1271Z" fill="#850010"/>
</g>
<mask id="mask6_144_3826" style="mask-type:luminance" maskUnits="userSpaceOnUse" x="6" y="21" width="3" height="2">
<path d="M7.7623 22.7767L6.09375 21.8693C6.35964 21.8668 6.60602 21.8497 6.82801 21.818C7.00608 21.7936 7.16952 21.7595 7.31833 21.7156L8.98687 22.623C8.83807 22.6669 8.67463 22.7011 8.49656 22.7255C8.27457 22.7572 8.03063 22.7743 7.7623 22.7767Z" fill="white"/>
</mask>
<g mask="url(#mask6_144_3826)">
<path d="M7.7623 22.7767L6.09375 21.8693C6.35964 21.8668 6.60602 21.8497 6.82801 21.818C7.00608 21.7936 7.16952 21.7595 7.31833 21.7156L8.98687 22.623C8.83807 22.6669 8.67463 22.7011 8.49656 22.7255C8.27457 22.7572 8.03063 22.7743 7.7623 22.7767Z" fill="#A80014"/>
</g>
<path d="M6.47421 22.7864L4.80811 21.8789L6.09367 21.8691L7.76221 22.7766L6.47421 22.7864Z" fill="#B20016"/>
<mask id="mask7_144_3826" style="mask-type:luminance" maskUnits="userSpaceOnUse" x="4" y="21" width="3" height="2">
<path d="M5.74716 22.6472L4.07861 21.7397C4.25425 21.8349 4.49575 21.8812 4.80799 21.8788L6.47654 22.7862C6.1643 22.7887 5.92036 22.7423 5.74716 22.6472Z" fill="white"/>
</mask>
<g mask="url(#mask7_144_3826)">
<path d="M5.74716 22.6472L4.07861 21.7397C4.08837 21.7446 4.09813 21.7495 4.10789 21.7544L5.77643 22.6618C5.76668 22.657 5.75692 22.6521 5.74716 22.6472Z" fill="#9E0013"/>
<path d="M5.77646 22.6643L4.10791 21.7568C4.16646 21.7861 4.22988 21.8081 4.30306 21.8276L5.97161 22.735C5.89843 22.7155 5.835 22.6911 5.77646 22.6643Z" fill="#A30014"/>
<path d="M5.97177 22.7348L4.30322 21.8274C4.44471 21.864 4.61303 21.8811 4.80574 21.8786L6.47429 22.7861C6.28157 22.7885 6.11325 22.7714 5.97177 22.7348Z" fill="#A80014"/>
</g>
<mask id="mask8_144_3826" style="mask-type:luminance" maskUnits="userSpaceOnUse" x="8" y="10" width="4" height="4">
<path d="M10.2843 13.8995L8.61572 12.9921C9.09384 12.7066 9.38413 12.1309 9.47927 11.265C9.52806 10.8332 9.50122 10.4648 9.39877 10.1648L11.0673 11.0723C11.1698 11.3723 11.1966 11.7382 11.1478 12.1724C11.0527 13.0384 10.7648 13.6141 10.2843 13.8995Z" fill="white"/>
</mask>
<g mask="url(#mask8_144_3826)">
<path d="M10.2843 13.8994L8.61572 12.9919C8.64256 12.9773 8.66695 12.9602 8.69378 12.9431L10.3623 13.8506C10.3379 13.8652 10.3111 13.8823 10.2843 13.8994Z" fill="#A30014"/>
<path d="M10.3624 13.8483L8.69385 12.9408C8.7402 12.9091 8.78655 12.8725 8.83045 12.8335L10.499 13.741C10.4551 13.78 10.4112 13.8166 10.3624 13.8483Z" fill="#9E0013"/>
<path d="M10.4991 13.7409L8.83057 12.8334C8.8696 12.7968 8.90863 12.7578 8.94522 12.7163L10.6138 13.6238C10.5772 13.6652 10.5381 13.7043 10.4991 13.7409Z" fill="#990013"/>
<path d="M10.6139 13.6239L8.94531 12.7164C8.98434 12.6725 9.01849 12.6286 9.05265 12.5774L10.7212 13.4848C10.687 13.5361 10.6529 13.5824 10.6139 13.6239Z" fill="#940012"/>
<path d="M10.7208 13.4874L9.05225 12.5799C9.09128 12.5238 9.13031 12.4628 9.16446 12.397L10.833 13.3044C10.7989 13.3703 10.7623 13.4313 10.7208 13.4874Z" fill="#8F0011"/>
<path d="M10.8331 13.3042L9.16455 12.3967C9.21334 12.3065 9.25481 12.2113 9.29384 12.1064L10.9624 13.0139C10.9258 13.1188 10.8819 13.2164 10.8331 13.3042Z" fill="#8A0011"/>
<path d="M10.9625 13.014L9.29395 12.1066C9.38176 11.8651 9.44519 11.5845 9.48178 11.265C9.53057 10.8332 9.50373 10.4648 9.40128 10.1648L11.0698 11.0723C11.1723 11.3723 11.1991 11.7382 11.1503 12.1724C11.1137 12.492 11.0528 12.7749 10.9625 13.014Z" fill="#850010"/>
</g>
<mask id="mask9_144_3826" style="mask-type:luminance" maskUnits="userSpaceOnUse" x="8" y="9" width="4" height="3">
<path d="M11.07 11.0725L9.40145 10.165C9.2746 9.92106 9.10872 9.70883 8.90869 9.521L10.5772 10.4285C10.7773 10.6163 10.9431 10.8285 11.07 11.0725Z" fill="white"/>
</mask>
<g mask="url(#mask9_144_3826)">
<path d="M11.07 11.0725L9.40145 10.165C9.2746 9.92106 9.10872 9.70883 8.90869 9.521L10.5772 10.4285C10.7773 10.6163 10.9431 10.8285 11.07 11.0725Z" fill="#850010"/>
</g>
<mask id="mask10_144_3826" style="mask-type:luminance" maskUnits="userSpaceOnUse" x="6" y="12" width="5" height="3">
<path d="M8.379 14.3948L6.71045 13.4874C6.93975 13.4849 7.15442 13.4703 7.35933 13.441C7.85453 13.3703 8.2741 13.2215 8.61562 12.9897L10.2842 13.8972C9.94265 14.1265 9.52307 14.2777 9.02788 14.3485C8.82541 14.3778 8.6083 14.3924 8.379 14.3948Z" fill="white"/>
</mask>
<g mask="url(#mask10_144_3826)">
<path d="M8.379 14.395L6.71045 13.4875C6.93975 13.4851 7.15442 13.4705 7.35933 13.4412C7.70816 13.3924 8.02041 13.3021 8.29118 13.1753L9.95973 14.0827C9.68651 14.212 9.37671 14.2999 9.02788 14.3486C8.82541 14.3779 8.6083 14.3926 8.379 14.395Z" fill="#A80014"/>
<path d="M9.96005 14.0826L8.29395 13.1751C8.4086 13.1215 8.51593 13.0605 8.61839 12.9922L10.2869 13.8996C10.1845 13.9679 10.0771 14.0289 9.96005 14.0826Z" fill="#A30014"/>
</g>
<mask id="mask11_144_3826" style="mask-type:luminance" maskUnits="userSpaceOnUse" x="10" y="5" width="3" height="3">
<path d="M11.1285 6.38881L12.7971 7.29626C12.4824 7.1255 12.1262 6.98402 11.7286 6.86693L10.0601 5.95947C10.4577 6.07412 10.8138 6.21805 11.1285 6.38881Z" fill="white"/>
</mask>
<g mask="url(#mask11_144_3826)">
<path d="M11.7262 6.86693L10.0576 5.95947C10.3894 6.05461 10.6943 6.1717 10.9675 6.30587L12.6361 7.21332C12.3628 7.07916 12.0579 6.96206 11.7262 6.86693Z" fill="#A30014"/>
<path d="M12.6363 7.21336L10.9678 6.30591C11.0214 6.33274 11.0751 6.35957 11.1288 6.38885L12.7973 7.2963C12.7437 7.26703 12.69 7.2402 12.6363 7.21336Z" fill="#9E0013"/>
</g>
<path d="M6.11288 14.4145L4.44434 13.5071L6.71054 13.4875L8.37908 14.395L6.11288 14.4145Z" fill="#B20016"/>
<mask id="mask12_144_3826" style="mask-type:luminance" maskUnits="userSpaceOnUse" x="0" y="20" width="4" height="6">
<path d="M3.2931 25.7551L1.62455 24.8477C1.28791 24.6647 1.00494 24.4281 0.7732 24.1427C0.12432 23.3597 -0.11718 22.2229 0.0535777 20.7349L1.72212 21.6423C1.55381 23.1304 1.79287 24.2647 2.44175 25.0502C2.67105 25.3356 2.95646 25.5722 3.2931 25.7551Z" fill="white"/>
</mask>
<g mask="url(#mask12_144_3826)">
<path d="M3.2931 25.7551L1.62455 24.8477C1.28791 24.6647 1.00494 24.4281 0.7732 24.1427C0.12432 23.3597 -0.11718 22.2229 0.0535777 20.7349L1.72212 21.6423C1.55381 23.1304 1.79287 24.2647 2.44175 25.0502C2.67105 25.3356 2.95646 25.5722 3.2931 25.7551Z" fill="#850010"/>
</g>
<mask id="mask13_144_3826" style="mask-type:luminance" maskUnits="userSpaceOnUse" x="7" y="5" width="5" height="2">
<path d="M9.51864 6.60345L7.8501 5.69599C8.53557 5.69111 9.27227 5.77893 10.0578 5.95945L11.7263 6.8669C10.9408 6.68639 10.2041 6.59857 9.51864 6.60345Z" fill="white"/>
</mask>
<g mask="url(#mask13_144_3826)">
<path d="M9.51864 6.60345L7.8501 5.69599C8.53557 5.69111 9.27227 5.77893 10.0578 5.95945L11.7263 6.8669C10.9408 6.68639 10.2041 6.59857 9.51864 6.60345Z" fill="#A80014"/>
</g>
<path d="M1.71982 21.6397L0.0512695 20.7323L1.75153 5.74707L3.42008 6.65453L1.71982 21.6397Z" fill="#850010"/>
<path d="M3.42001 6.65448L1.75146 5.74703L7.85239 5.6958L9.5185 6.60326L3.42001 6.65448Z" fill="#B20016"/>
<path d="M13.8239 13.9826C13.3116 14.7023 12.7091 15.2511 12.0163 15.6317C12.7042 15.9073 13.2482 16.261 13.6458 16.6879C14.0068 17.1368 14.263 17.5856 14.4191 18.0345C14.5484 18.5419 14.6191 18.9834 14.6264 19.3591C14.6313 19.7738 14.6216 20.0836 14.5996 20.2909C14.4923 21.2325 14.2313 22.0888 13.819 22.8645C13.3897 23.6207 12.875 24.2354 12.2724 24.7087C11.6357 25.1843 10.9064 25.5551 10.0892 25.8283C9.62568 25.9601 9.16219 26.0576 8.70114 26.1235C8.28157 26.1821 7.86443 26.2138 7.4473 26.2162L5.59579 26.2308C4.13704 26.243 3.08322 25.8479 2.43922 25.0477C1.79034 24.2647 1.54884 23.1279 1.71959 21.6399L3.41985 6.65469L9.51834 6.60346C10.2038 6.59859 10.9405 6.6864 11.726 6.86692C12.4237 7.06939 12.992 7.35236 13.4287 7.72559C13.8971 8.13541 14.2483 8.65744 14.485 9.29656C14.7191 9.95276 14.7874 10.7212 14.685 11.6067C14.585 12.4922 14.2971 13.2825 13.8239 13.9826ZM11.2064 20.0665C11.2552 19.6347 11.2162 19.2298 11.0869 18.8541C10.9283 18.5736 10.7332 18.3321 10.5014 18.1272C10.2794 17.9784 9.99159 17.8588 9.64275 17.7661C9.28904 17.7125 8.95728 17.6881 8.64748 17.6905L5.73972 17.7149L5.33722 21.2716C5.27867 21.7985 5.32746 22.1741 5.4909 22.3986C5.63238 22.662 5.9617 22.7889 6.47398 22.7864L7.76198 22.7767C8.02787 22.7742 8.27425 22.7571 8.49624 22.7254C8.67431 22.701 8.83775 22.6669 8.98655 22.623C9.3549 22.5644 9.70374 22.4205 10.0379 22.1936C10.3355 21.9839 10.5917 21.7009 10.8039 21.3399C11.0186 20.9618 11.1527 20.5373 11.2064 20.0665ZM6.60814 10.0674L6.11295 14.412L8.37914 14.3925C8.60845 14.39 8.82311 14.3754 9.02802 14.3461C9.52322 14.2754 9.9428 14.1266 10.2843 13.8948C10.7624 13.6094 11.0527 13.0337 11.1479 12.1677C11.1966 11.736 11.1698 11.3676 11.0674 11.0676C10.9405 10.8236 10.7746 10.6114 10.5746 10.4236C10.2989 10.2748 10.0379 10.1747 9.78668 10.1186C9.48419 10.0674 9.16951 10.0406 8.84507 10.043L6.60814 10.0674Z" fill="#DF001B"/>
<path d="M22.5328 12.4385L26.8359 30.5656L23.3353 32L19.0322 13.8753L22.5328 12.4385Z" fill="#DF001B"/>
<path d="M23.3354 31.9999L21.6669 31.0925L17.3638 12.9678L19.0323 13.8752L23.3354 31.9999Z" fill="#800010"/>
<path d="M19.0323 13.8753L17.3638 12.9678L20.8643 11.531L22.5329 12.4385L19.0323 13.8753Z" fill="#B40016"/>
<path d="M34.315 18.7174L32.6465 17.8099L40.4452 15.2852L42.1138 16.1926L34.315 18.7174Z" fill="#B50016"/>
<path d="M30.4387 23.4352L28.7726 22.5278L28.3823 20.1006L30.0509 21.008L30.4387 23.4352Z" fill="#800010"/>
<path d="M30.0509 21.008L28.3823 20.1005L34.3101 4.61768L35.9786 5.52513L30.0509 21.008Z" fill="#900012"/>
<path d="M39.5451 0.907471L40.0233 3.90305L34.3151 18.7175L42.1138 16.1927L42.6383 19.4835L30.4389 23.4353L30.051 21.0081L35.9788 5.52525L27.897 8.14272L27.375 4.85197L39.5451 0.907471Z" fill="#DF001B"/>
<path d="M27.8971 8.14278L26.2286 7.23533L25.7065 3.94458L27.3751 4.85204L27.8971 8.14278Z" fill="#800010"/>
<path d="M27.3751 4.85196L25.7065 3.9445L37.8791 0L39.5452 0.907455L27.3751 4.85196Z" fill="#B50016"/>
</g>
<defs>
<clipPath id="clip0_144_3826">
<rect width="42.6382" height="32" fill="white"/>
</clipPath>
</defs>
</svg>
