<svg width="24" height="24" viewBox="0 0 24 24" fill="none" xmlns="http://www.w3.org/2000/svg">
<g clip-path="url(#clip0_3328_3078)">
<path d="M12 24C18.6274 24 24 18.6274 24 12C24 5.37258 18.6274 0 12 0C5.37258 0 0 5.37258 0 12C0 18.6274 5.37258 24 12 24Z" fill="#D70011"/>
<path d="M12.548 16.7228C14.015 17.6648 15.548 16.9788 16.61 16.1838C16.7764 16.0472 16.9119 15.8767 17.0075 15.6838C17.103 15.4908 17.1565 15.2797 17.1644 15.0645C17.1722 14.8493 17.1342 14.6349 17.053 14.4355C16.9717 14.2361 16.849 14.0562 16.693 13.9078L15.454 12.5908C15.1831 12.8329 14.8575 13.0057 14.5051 13.0943C14.1528 13.183 13.7842 13.1849 13.431 13.0998C12.9272 12.9642 12.4552 12.7303 12.0422 12.4116C11.6291 12.0929 11.2831 11.6957 11.024 11.2428C10.8502 10.813 10.8087 10.3411 10.9047 9.88752C11.0007 9.43395 11.23 9.01936 11.563 8.69683L10.182 7.43683C10.0563 7.3012 9.90421 7.19267 9.73507 7.1179C9.56593 7.04313 9.3833 7.00369 9.19838 7.00201C9.01346 7.00032 8.83014 7.03643 8.65967 7.1081C8.4892 7.17977 8.33516 7.28551 8.207 7.41883C7.202 8.61183 6.577 10.4188 7.317 11.5758C8.67313 13.6453 10.4568 15.4004 12.548 16.7228Z" stroke="white" stroke-linecap="round" stroke-linejoin="round"/>
</g>
<defs>
<clipPath id="clip0_3328_3078">
<rect width="24" height="24" fill="white"/>
</clipPath>
</defs>
</svg>
