<svg width="24" height="24" viewBox="0 0 24 24" fill="none" xmlns="http://www.w3.org/2000/svg">
<g id="dotdotdot 2" clip-path="url(#clip0_4837_926)">
<path id="Icon ionic-md-more" d="M13.626 6.814C13.6262 6.45538 13.52 6.10476 13.3209 5.80648C13.1218 5.5082 12.8388 5.27567 12.5075 5.13829C12.1762 5.00092 11.8117 4.96487 11.4599 5.03472C11.1082 5.10456 10.785 5.27715 10.5314 5.53066C10.2777 5.78418 10.1049 6.10722 10.0349 6.45893C9.96487 6.81065 10.0007 7.17523 10.1379 7.50658C10.2751 7.83792 10.5075 8.12113 10.8056 8.32039C11.1038 8.51964 11.4544 8.626 11.813 8.626C12.2933 8.62468 12.7535 8.43338 13.0932 8.09388C13.4329 7.75438 13.6244 7.29426 13.626 6.814ZM13.626 17.69C13.626 17.3314 13.5197 16.9809 13.3205 16.6828C13.1212 16.3846 12.8381 16.1522 12.5068 16.015C12.1755 15.8778 11.811 15.8419 11.4593 15.9118C11.1076 15.9818 10.7846 16.1545 10.531 16.408C10.2775 16.6616 10.1048 16.9846 10.0348 17.3363C9.96488 17.688 10.0008 18.0525 10.138 18.3838C10.2752 18.7151 10.5076 18.9982 10.8058 19.1975C11.1039 19.3967 11.4544 19.503 11.813 19.503C12.2934 19.5017 12.7538 19.3102 13.0935 18.9705C13.4332 18.6308 13.6247 18.1704 13.626 17.69ZM13.626 12.252C13.626 11.8934 13.5197 11.5429 13.3205 11.2448C13.1212 10.9466 12.8381 10.7142 12.5068 10.577C12.1755 10.4398 11.811 10.4039 11.4593 10.4738C11.1076 10.5438 10.7846 10.7165 10.531 10.97C10.2775 11.2236 10.1048 11.5466 10.0348 11.8983C9.96488 12.25 10.0008 12.6145 10.138 12.9458C10.2752 13.2771 10.5076 13.5602 10.8058 13.7595C11.1039 13.9587 11.4544 14.065 11.813 14.065C12.2936 14.0637 12.7541 13.8721 13.0939 13.5322C13.4336 13.1922 13.6249 12.7316 13.626 12.251V12.252Z" fill="#28323C"/>
</g>
<defs>
<clipPath id="clip0_4837_926">
<rect width="24" height="24" fill="white"/>
</clipPath>
</defs>
</svg>
