<svg width="51" height="43" viewBox="0 0 51 43" fill="none" xmlns="http://www.w3.org/2000/svg">
<mask id="mask0_4850_749" style="mask-type:luminance" maskUnits="userSpaceOnUse" x="0" y="0" width="51" height="43">
<path d="M50.282 0H0.5V42.41H50.282V0Z" fill="white"/>
</mask>
<g mask="url(#mask0_4850_749)">
<path d="M30.361 41.735V31.784C30.342 30.413 29.7841 29.1046 28.8079 28.1418C27.8316 27.179 26.5156 26.6392 25.1445 26.6392C23.7734 26.6392 22.4574 27.179 21.4812 28.1418C20.5049 29.1046 19.947 30.413 19.928 31.784V41.735" stroke="#EBE9EE" stroke-width="2"/>
<path d="M37.647 41.41H12.647C10.817 41.41 9.06197 40.683 7.76797 39.389C6.47397 38.095 5.74701 36.34 5.74701 34.51V18.991" stroke="#EBE9EE" stroke-width="2"/>
<path d="M1.5 14.151C1.491 17.618 5.109 20.429 9.56 20.429C13.309 20.429 16.451 18.429 17.352 15.729C18.252 18.429 21.396 20.429 25.145 20.429C28.894 20.429 32.035 18.429 32.937 15.729C33.837 18.429 36.98 20.429 40.729 20.429C45.181 20.429 48.789 17.618 48.789 14.151C48.789 12.889 48.578 12.735 48.578 12.735L43.367 1H6.922L1.711 12.735C1.711 12.735 1.5 12.889 1.5 14.151Z" stroke="#EBE9EE" stroke-width="2"/>
<path d="M17.35 15.701L18.625 1.40199" stroke="#EBE9EE" stroke-width="2"/>
<path d="M32.935 15.701L31.66 1.40199" stroke="#EBE9EE" stroke-width="2"/>
<path d="M44.425 40.894C44.3201 41.0526 44.1775 41.1828 44.0099 41.2728C43.8424 41.3629 43.6552 41.41 43.465 41.41C43.2748 41.41 43.0876 41.3629 42.92 41.2728C42.7525 41.1828 42.6099 41.0526 42.505 40.894C40.705 38.183 37.648 33.103 37.648 29.869C37.6379 29.0986 37.7809 28.3339 38.0687 27.6192C38.3566 26.9046 38.7835 26.2542 39.3247 25.7058C39.8659 25.1575 40.5106 24.7221 41.2214 24.4249C41.9323 24.1278 42.695 23.9747 43.4655 23.9747C44.2359 23.9747 44.9987 24.1278 45.7095 24.4249C46.4204 24.7221 47.0651 25.1575 47.6063 25.7058C48.1475 26.2542 48.5744 26.9046 48.8623 27.6192C49.1501 28.3339 49.2931 29.0986 49.283 29.869C49.283 33.1 46.225 38.183 44.425 40.894Z" stroke="#EBE9EE" stroke-width="2"/>
<path d="M43.465 31.758C43.0915 31.7578 42.7264 31.6469 42.4159 31.4392C42.1054 31.2316 41.8634 30.9366 41.7206 30.5914C41.5777 30.2463 41.5404 29.8666 41.6133 29.5002C41.6863 29.1339 41.8662 28.7974 42.1303 28.5333C42.3944 28.2692 42.7309 28.0893 43.0972 28.0163C43.4636 27.9434 43.8433 27.9807 44.1884 28.1236C44.5336 28.2664 44.8286 28.5084 45.0362 28.8189C45.2439 29.1294 45.3548 29.4945 45.355 29.868C45.3545 30.3691 45.1552 30.8495 44.8008 31.2038C44.4465 31.5582 43.9661 31.7575 43.465 31.758Z" fill="#EBE9EE"/>
</g>
</svg>
