<svg width="34" height="34" viewBox="0 0 34 34" fill="none" xmlns="http://www.w3.org/2000/svg">
<path d="M25.8041 4.20001H5.6C4.8268 4.20001 4.2 4.82681 4.2 5.60001V10.6871C4.2 11.4603 4.8268 12.0871 5.6 12.0871H7.60801H25.8041C26.5773 12.0871 27.2041 11.4603 27.2041 10.6871V5.60001C27.2041 4.82681 26.5773 4.20001 25.8041 4.20001Z" stroke="white" stroke-width="1.5" stroke-linecap="round"/>
<path d="M12.7201 12.0872H7.57187C6.79868 12.0872 6.17188 12.714 6.17188 13.4872V22.5178C6.17188 23.291 6.79868 23.9178 7.57187 23.9178H12.2941" stroke="white" stroke-width="1.5" stroke-linecap="round"/>
<path d="M17.6297 17.5138C20.0178 15.1257 24.0173 15.1062 26.5629 17.5272C29.1082 19.9481 29.1881 23.8471 26.8001 26.235C24.4121 28.6228 20.4139 28.6422 17.8684 26.2217C15.3229 23.8008 15.2419 19.9019 17.6297 17.5138Z" stroke="white" stroke-width="1.5"/>
<path d="M29.9803 30.3542C30.2732 30.6471 30.7481 30.6471 31.041 30.3542C31.3339 30.0613 31.3339 29.5864 31.041 29.2935L29.9803 30.3542ZM27.0085 26.3217L26.4782 26.852L29.9803 30.3542L30.5107 29.8239L31.041 29.2935L27.5388 25.7914L27.0085 26.3217Z" fill="white"/>
</svg>
