<svg width="24" height="24" viewBox="0 0 24 24" fill="none" xmlns="http://www.w3.org/2000/svg">
<path d="M18.9143 3H2.98901C2.43673 3 1.98901 3.44771 1.98901 4V8.14581C1.98901 8.69809 2.43673 9.14581 2.98901 9.14581H4.64461H18.9143C19.4666 9.14581 19.9143 8.6981 19.9143 8.14581V4C19.9143 3.44772 19.4666 3 18.9143 3Z" stroke="white" stroke-width="1.5" stroke-linecap="round"/>
<path d="M8.62793 9.14581H4.52542C3.97314 9.14581 3.52542 9.59353 3.52542 10.1458V17.3645C3.52542 17.9168 3.97314 18.3645 4.52542 18.3645H8.29598" stroke="white" stroke-width="1.5" stroke-linecap="round"/>
<path d="M12.5739 13.4882C14.3672 11.6951 17.3767 11.6755 19.2969 13.5014C21.2172 15.3276 21.2731 18.2626 19.4799 20.0559C17.6865 21.8493 14.6764 21.8683 12.7562 20.0421C10.8362 18.2159 10.7807 15.2815 12.5739 13.4882Z" stroke="white" stroke-width="1.5"/>
<path d="M21.9604 23.497C22.2533 23.7898 22.7282 23.7898 23.0211 23.497C23.314 23.2041 23.314 22.7292 23.0211 22.4363L21.9604 23.497ZM19.7618 20.2377L19.2314 20.768L21.9604 23.497L22.4907 22.9666L23.0211 22.4363L20.2921 19.7073L19.7618 20.2377Z" fill="white"/>
</svg>
