<svg width="25" height="24" viewBox="0 0 25 24" fill="none" xmlns="http://www.w3.org/2000/svg">
<path d="M19.4143 3H3.48901C2.93673 3 2.48901 3.44771 2.48901 4V8.14581C2.48901 8.69809 2.93673 9.14581 3.48901 9.14581H5.14461H19.4143C19.9666 9.14581 20.4143 8.6981 20.4143 8.14581V4C20.4143 3.44772 19.9666 3 19.4143 3Z" stroke="#D70011" stroke-width="1.5" stroke-linecap="round"/>
<path d="M9.12793 9.14581H5.02542C4.47314 9.14581 4.02542 9.59353 4.02542 10.1458V17.3645C4.02542 17.9168 4.47314 18.3645 5.02542 18.3645H8.79598" stroke="#D70011" stroke-width="1.5" stroke-linecap="round"/>
<path d="M13.0739 13.4882C14.8672 11.6951 17.8767 11.6755 19.7969 13.5014C21.7172 15.3276 21.7731 18.2626 19.9799 20.0559C18.1865 21.8493 15.1764 21.8683 13.2562 20.0421C11.3362 18.2159 11.2807 15.2815 13.0739 13.4882Z" stroke="#D70011" stroke-width="1.5"/>
<path d="M22.4604 23.497C22.7533 23.7898 23.2282 23.7898 23.5211 23.497C23.814 23.2041 23.814 22.7292 23.5211 22.4363L22.4604 23.497ZM20.2618 20.2377L19.7314 20.768L22.4604 23.497L22.9907 22.9666L23.5211 22.4363L20.7921 19.7073L20.2618 20.2377Z" fill="#D70011"/>
</svg>
