<svg width="75" height="24" viewBox="0 0 75 24" fill="none" xmlns="http://www.w3.org/2000/svg">
<path d="M63.3535 1H11C4.92487 1 0 5.92487 0 12C0 18.0751 4.92487 23 11 23H63.3535C69.4286 23 74.3535 18.0751 74.3535 12C74.3535 5.92487 69.4286 1 63.3535 1Z" fill="#EBE9EE"/>
<mask id="mask0_3547_6120" style="mask-type:luminance" maskUnits="userSpaceOnUse" x="6" y="6" width="12" height="12">
<path d="M18 6H6V18H18V6Z" fill="white"/>
</mask>
<g mask="url(#mask0_3547_6120)">
<path fill-rule="evenodd" clip-rule="evenodd" d="M18 11.9986C17.9985 13.4379 17.4796 14.8287 16.538 15.9174C15.5964 17.006 14.2948 17.7198 12.8707 17.9287C11.4466 18.1375 9.99482 17.8275 8.78027 17.0551C7.56572 16.2827 6.66929 15.0995 6.25452 13.7212C5.83975 12.3429 5.93427 10.8614 6.52084 9.54704C7.10741 8.23264 8.14694 7.1729 9.4498 6.56113C10.7527 5.94936 12.232 5.82633 13.6181 6.21448C15.0041 6.60264 16.2044 7.47611 17 8.67556L12.875 12.5696L10.231 10.0696L9 11.3446L12.871 14.9986L17.771 10.3686C17.9218 10.8988 17.9988 11.4473 18 11.9986Z" fill="#28323C"/>
</g>
<mask id="mask1_3547_6120" style="mask-type:luminance" maskUnits="userSpaceOnUse" x="20" y="6" width="48" height="12">
<path d="M67.3535 6H20V18H67.3535V6Z" fill="white"/>
</mask>
<g mask="url(#mask1_3547_6120)">
<path d="M25.0489 17.2667C25.0382 17.3685 24.9523 17.4458 24.85 17.4458H20.222C20.1033 17.4458 20.0107 17.343 20.0231 17.2249L21.1609 6.39425C21.1716 6.29244 21.2575 6.21515 21.3598 6.21515H23.0948C23.2135 6.21515 23.3061 6.31797 23.2937 6.43605L22.3694 15.2297C22.357 15.3478 22.4496 15.4506 22.5683 15.4506H25.0171C25.1359 15.4506 25.2284 15.5534 25.2161 15.6715L25.0489 17.2667ZM26.947 6.25229C26.9577 6.15048 27.0436 6.07318 27.1459 6.07318H28.7811C28.8998 6.07318 28.9924 6.17601 28.98 6.29408L28.5756 10.142C28.5632 10.26 28.6558 10.3629 28.7745 10.3629H29.3834C29.4857 10.3629 29.5716 10.2856 29.5823 10.1839L30.0031 6.19465C30.0138 6.09288 30.0996 6.01562 30.202 6.01562H31.866C31.9847 6.01562 32.0773 6.11846 32.0649 6.23654L30.8465 17.8212C30.8358 17.923 30.75 18.0003 30.6476 18.0003H28.9836C28.8649 18.0003 28.7723 17.8975 28.7847 17.7794L29.3311 12.577C29.3435 12.459 29.2509 12.3562 29.1322 12.3562H28.5234C28.421 12.3562 28.3352 12.4335 28.3245 12.5353L27.7846 17.6773C27.7739 17.7791 27.6881 17.8564 27.5857 17.8564H25.9505C25.8318 17.8564 25.7392 17.7536 25.7516 17.6355L26.947 6.25229Z" fill="#28323C"/>
<path d="M33.0034 12.3446H42.8706C42.9893 12.3446 43.0819 12.4474 43.0695 12.5655L42.7393 15.7147C42.7286 15.8165 42.6427 15.8938 42.5403 15.8938H35.1768C35.0745 15.8938 34.9886 15.9711 34.9779 16.0729L34.972 16.1295C34.9596 16.2476 35.0522 16.3504 35.1709 16.3504H42.6633C42.7821 16.3504 42.8747 16.4532 42.8622 16.5713L42.7335 17.7962C42.7228 17.898 42.637 17.9753 42.5346 17.9753H32.719C32.6003 17.9753 32.5078 17.8725 32.5201 17.7545L32.8504 14.6053C32.861 14.5035 32.9469 14.4262 33.0493 14.4262H40.4128C40.5152 14.4262 40.601 14.3489 40.6117 14.2471L40.6177 14.1905C40.6301 14.0724 40.5375 13.9696 40.4187 13.9696H33.0529C32.9342 13.9696 32.8416 13.8668 32.854 13.7487L33.0013 12.3466L33.0034 12.3446ZM36.0634 6.01562H37.0034C38.8413 6.01562 39.9636 7.14176 39.7929 8.7667L39.766 9.02378C39.5953 10.6487 38.237 11.7749 36.3991 11.7749H35.4591C33.6212 11.7749 32.4989 10.6487 32.6696 9.02378L32.6965 8.7667C32.8672 7.14176 34.2255 6.01562 36.0634 6.01562ZM35.814 9.8775H36.4413C37.0111 9.8775 37.4581 9.56479 37.5157 9.00843L37.5387 8.78014C37.5963 8.22379 37.2164 7.91107 36.6466 7.91107H36.0193C35.4495 7.91107 35.0025 8.22379 34.9449 8.78014L34.9219 9.00843C34.8644 9.56479 35.2442 9.8775 35.814 9.8775ZM41.4585 6.1947C41.4692 6.09291 41.555 6.01562 41.6574 6.01562H43.5343C43.653 6.01562 43.7456 6.11847 43.7332 6.23655L43.1652 11.6361C43.1545 11.7379 43.0687 11.8151 42.9663 11.8151H41.0894C40.9706 11.8151 40.8781 11.7123 40.8905 11.5942L41.4585 6.1947Z" fill="#28323C"/>
<path d="M44.1324 10.7128C44.1431 10.6109 44.2289 10.5336 44.3313 10.5336H45.0787C45.1824 10.5336 45.2689 10.4544 45.278 10.3511L45.4539 8.3434C45.4642 8.2265 45.372 8.12594 45.2547 8.12594H44.684C44.5653 8.12594 44.4727 8.02316 44.4851 7.90511L44.6446 6.38089C44.6553 6.27905 44.7412 6.20173 44.8436 6.20173H51.979C52.0977 6.20173 52.1903 6.30449 52.1779 6.42254L52.0184 7.94676C52.0077 8.0486 51.9218 8.12594 51.8195 8.12594H51.2499C51.1489 8.12594 51.0637 8.20129 51.0514 8.30158L50.8051 10.3093C50.7904 10.4285 50.8835 10.5336 51.0036 10.5336H51.6529C51.7716 10.5336 51.8641 10.6364 51.8518 10.7544L51.6922 12.2787C51.6816 12.3805 51.5957 12.4578 51.4933 12.4578H44.1718C44.0531 12.4578 43.9605 12.3551 43.9728 12.237L44.1324 10.7128ZM44.6688 13.5971C44.6685 13.5971 44.669 13.5973 44.6688 13.5971L54.5362 13.5974C54.6549 13.5974 54.7475 13.7002 54.7351 13.8183L54.3168 17.7924C54.3061 17.8942 54.2202 17.9715 54.1179 17.9715H52.2408C52.1221 17.9715 52.0296 17.8687 52.0419 17.7507L52.2451 15.8115C52.2574 15.6935 52.1648 15.5907 52.0461 15.5907H44.6802C44.5615 15.5907 44.4689 15.4879 44.4813 15.3698L44.667 13.5977C44.6671 13.5968 44.6682 13.5964 44.6688 13.5971ZM48.4162 10.5336C48.5185 10.5336 48.6044 10.4563 48.6151 10.3545L48.8263 8.34686C48.8387 8.22878 48.7461 8.12594 48.6274 8.12594H47.8746C47.7723 8.12594 47.6864 8.20322 47.6757 8.30502L47.4646 10.3127C47.4522 10.4308 47.5447 10.5336 47.6635 10.5336H48.4162ZM53.2566 6.19471C53.2673 6.09291 53.3531 6.01562 53.4555 6.01562H55.3324C55.4511 6.01562 55.5437 6.11846 55.5313 6.23654L54.8539 12.6778C54.8432 12.7796 54.7574 12.8569 54.655 12.8569H52.7781C52.6594 12.8569 52.5668 12.754 52.5792 12.636L53.2566 6.19471Z" fill="#28323C"/>
<path d="M56.7118 13.0408H58.7689C58.8876 13.0408 58.9802 13.1436 58.9678 13.2616L58.9469 13.4607C58.9346 13.5787 59.0272 13.6815 59.1459 13.6815H64.0866C64.189 13.6815 64.2748 13.6042 64.2855 13.5024L64.3151 13.2199C64.3258 13.1181 64.4116 13.0408 64.514 13.0408H66.3908C66.5096 13.0408 66.6022 13.1436 66.5897 13.2617L66.1158 17.7634C66.1051 17.8652 66.0192 17.9424 65.9169 17.9424H56.416C56.2972 17.9424 56.2047 17.8396 56.2171 17.7215L56.7097 13.0427L56.7118 13.0408ZM59.7603 6H60.1593C61.9972 6 63.2116 7.19712 63.0178 9.03501L62.9871 9.32086C62.7933 11.1588 61.3296 12.3559 59.4897 12.3559H59.0907C57.2528 12.3559 56.0384 11.1588 56.2322 9.32086L56.2629 9.03501C56.4567 7.19712 57.9224 6 59.7603 6ZM59.3842 10.3895H59.6125C60.1823 10.3895 60.6639 10.0038 60.7387 9.30552L60.7655 9.04844C60.8384 8.35012 60.4375 7.96451 59.8677 7.96451H59.6394C59.0696 7.96451 58.5881 8.35012 58.5132 9.04844L58.4864 9.30552C58.4135 10.0038 58.8144 10.3895 59.3842 10.3895ZM63.8296 16.1468C63.932 16.1468 64.0178 16.0695 64.0285 15.9678L64.0631 15.6407C64.0755 15.5225 63.9829 15.4197 63.8642 15.4197H58.9235C58.8211 15.4197 58.7353 15.4969 58.7246 15.5987L58.6901 15.9258C58.6776 16.0439 58.7702 16.1468 58.8889 16.1468H63.8296ZM63.446 8.3451C63.4567 8.24327 63.5426 8.16595 63.6449 8.16595H64.668C64.7703 8.16595 64.8562 8.08866 64.8669 7.98687L65.0556 6.19251C65.0663 6.09071 65.1521 6.01343 65.2545 6.01343H67.1314C67.2502 6.01343 67.3427 6.11624 67.3303 6.23431L66.699 12.2477C66.6883 12.3496 66.6024 12.4269 66.5001 12.4269H64.6231C64.5044 12.4269 64.4118 12.324 64.4242 12.206L64.6157 10.382C64.6281 10.264 64.5355 10.1611 64.4168 10.1611H63.4778C63.359 10.1611 63.2665 10.0584 63.2788 9.9403L63.446 8.3451Z" fill="#28323C"/>
</g>
</svg>
