<svg width="16" height="16" viewBox="0 0 16 16" fill="none" xmlns="http://www.w3.org/2000/svg">
<g clip-path="url(#clip0_3547_6046)">
<path d="M8 16C12.4183 16 16 12.4183 16 8C16 3.58172 12.4183 0 8 0C3.58172 0 0 3.58172 0 8C0 12.4183 3.58172 16 8 16Z" fill="white"/>
<path d="M8 15.5C12.1421 15.5 15.5 12.1421 15.5 8C15.5 3.85786 12.1421 0.5 8 0.5C3.85786 0.5 0.5 3.85786 0.5 8C0.5 12.1421 3.85786 15.5 8 15.5Z" stroke="#646F7C"/>
<path d="M8.25492 9.711V9.666C8.21313 9.31513 8.27915 8.95986 8.44421 8.64743C8.60926 8.335 8.86553 8.08023 9.17892 7.917C9.50686 7.7385 9.77928 7.47309 9.96627 7.14991C10.1533 6.82673 10.2476 6.45828 10.2389 6.085C10.2416 5.80143 10.1848 5.52043 10.0723 5.26012C9.9598 4.99981 9.79402 4.76594 9.58565 4.57358C9.37727 4.38122 9.13092 4.23463 8.86246 4.14325C8.594 4.05186 8.30938 4.01772 8.02692 4.043C7.74224 4.02192 7.45624 4.05888 7.18627 4.15164C6.9163 4.24439 6.66799 4.39102 6.45638 4.58261C6.24477 4.77421 6.07428 5.00679 5.95525 5.26625C5.83622 5.5257 5.77113 5.80663 5.76392 6.092H6.74092C6.73982 5.92489 6.77268 5.7593 6.83749 5.60527C6.90231 5.45124 6.99774 5.31198 7.11799 5.19594C7.23825 5.07989 7.38082 4.98948 7.53706 4.93019C7.6933 4.8709 7.85995 4.84396 8.02692 4.851C8.19012 4.83973 8.35389 4.86222 8.508 4.91709C8.66212 4.97195 8.80327 5.05799 8.92263 5.16985C9.042 5.28171 9.13702 5.41698 9.20177 5.56722C9.26651 5.71745 9.29958 5.87941 9.29892 6.043C9.29623 6.31032 9.22178 6.57201 9.08333 6.80071C8.94488 7.0294 8.74753 7.21669 8.51192 7.343C8.09626 7.55762 7.75814 7.89688 7.54493 8.31327C7.33171 8.72965 7.25409 9.2023 7.32292 9.665V9.71L8.25492 9.711ZM7.82292 11.959C8.00549 11.9585 8.18043 11.8857 8.30953 11.7566C8.43863 11.6275 8.51139 11.4526 8.51192 11.27C8.51139 11.0874 8.43863 10.9125 8.30953 10.7834C8.18043 10.6543 8.00549 10.5815 7.82292 10.581C7.73236 10.5807 7.64265 10.5984 7.55894 10.6329C7.47522 10.6674 7.39916 10.7182 7.33513 10.7822C7.2711 10.8462 7.22036 10.9223 7.18583 11.006C7.15129 11.0897 7.13365 11.1794 7.13392 11.27C7.13365 11.3606 7.15129 11.4503 7.18583 11.534C7.22036 11.6177 7.2711 11.6938 7.33513 11.7578C7.39916 11.8218 7.47522 11.8726 7.55894 11.9071C7.64265 11.9416 7.73236 11.9593 7.82292 11.959Z" fill="#28323C"/>
</g>
<defs>
<clipPath id="clip0_3547_6046">
<rect width="16" height="16" fill="white"/>
</clipPath>
</defs>
</svg>
