<svg width="25" height="24" viewBox="0 0 25 24" fill="none" xmlns="http://www.w3.org/2000/svg">
<path d="M3.86364 13.4211L3.30312 13.9194L3.86364 14.5498L4.42415 13.9194L3.86364 13.4211ZM1.56052 9.70168C1.2853 9.39212 0.811245 9.36427 0.501681 9.63948C0.192116 9.9147 0.16427 10.3888 0.439484 10.6983L1.56052 9.70168ZM7.28779 10.6983C7.563 10.3888 7.53516 9.9147 7.22559 9.63948C6.91603 9.36427 6.44197 9.39212 6.16676 9.70168L7.28779 10.6983ZM22 12H21.25C21.25 16.5635 17.5899 20.25 13.0909 20.25V21V21.75C18.4326 21.75 22.75 17.3776 22.75 12H22ZM3.86364 13.4211H4.61364C4.61364 7.61861 8.64118 3.75 13.0909 3.75V3V2.25C7.69993 2.25 3.11364 6.9077 3.11364 13.4211H3.86364ZM13.0909 3V3.75C17.5899 3.75 21.25 7.43645 21.25 12H22H22.75C22.75 6.62242 18.4326 2.25 13.0909 2.25V3ZM1 10.2L0.439484 10.6983L3.30312 13.9194L3.86364 13.4211L4.42415 12.9227L1.56052 9.70168L1 10.2ZM3.86364 13.4211L4.42415 13.9194L7.28779 10.6983L6.72727 10.2L6.16676 9.70168L3.30312 12.9227L3.86364 13.4211Z" fill="#28323C"/>
<path d="M13 7V13L9 17" stroke="#28323C" stroke-width="1.5" stroke-linecap="round"/>
</svg>
